<svg xmlns="http://www.w3.org/2000/svg" width="250" height="250" viewBox="0 0 250 250" fill="none">
<path d="M 12.49,35.17 C 12.49,21.17 23.85,10 37.86,10 H 212.14 C 226.15,10 237.51,21.17 237.51,35.17 V 211.69 C 237.51,225.69 226.15,236.86 212.14,238.19 H 37.86 C 23.85,238.19 12.49,225.71 12.49,211.71 V 35.17 Z" fill="#FEFFFF" stroke="#1D5A7D" stroke-width="6.6" stroke-miterlimit="10"/>
<path d="M 223.22,37.76 C 223.22,22.43 210.81,10 195.49,10 H 142.99 C 127.66,10 114.53,22.43 114.53,37.76 V 44.34 H 126.72 V 39.31 C 126.72,30.19 133.21,24.93 139.79,24.93 H 192.38 C 200.23,24.93 207.11,31.11 207.11,39.75 V 182.09 L 219.3,183.65 L 222.08,184.94 L 223.22,37.76 Z" fill="#55CECB" stroke="#1D5A7D" stroke-width="5.5" stroke-miterlimit="10"/>
<path d="M 215.19,39.31 C 215.19,26.36 205.88,17.91 192.93,17.91 H 143.09 C 130.14,17.91 122.76,25.61 122.76,38.56 V 43.39 H 127.16 V 39.31 C 127.16,30.19 133.65,24.93 140.23,24.93 H 192.82 C 200.67,24.93 207.11,31.11 207.11,39.75 V 182.09 L 215.19,183.65 V 39.31 Z" fill="#259CB2" stroke="#1D5A7D" stroke-width="2.2" stroke-miterlimit="10"/>
<path d="M 12.49,116.19 V 211.71 C 12.49,225.71 23.85,236.88 37.86,238.21 H 212.14 C 226.15,236.88 237.51,225.71 237.51,211.71 V 209.48 C 237.51,195.48 223.99,182.09 209.99,182.09 H 205.81 C 203.37,182.09 200.98,182.61 198.71,183.19 C 192.99,174.16 181.63,169.13 170.05,171.97 C 168.96,172.26 167.87,172.63 167.32,172.91 C 159.12,157.09 146.46,146.38 128.71,146.38 C 112.09,146.38 99.11,155.44 91.87,169.67 C 87.18,167.22 81.72,166.06 75.96,166.85 C 63.88,168.56 54.21,175.71 48.75,187.8 C 45.74,186.96 43.3,186.51 39.72,186.51 C 25.72,186.51 12.49,197.71 12.49,211.71 V 116.19 Z" fill="#FEFFFF" stroke="#1D5A7D" stroke-width="6.6" stroke-miterlimit="10"/>
<path d="M 234.09,211.11 C 233.21,197.04 221.73,185.39 207.66,185.39 C 197.03,185.39 188.01,192.47 183.92,197.71 C 187.15,188.15 196.81,186.38 193.92,182.71 C 187.15,174.16 175.07,171.97 166.01,174.16 L 165.91,173.86 C 158.21,159.96 146.13,150.9 130.31,150.9 C 127.52,150.9 126.11,151.12 123.61,151.69 C 138.51,152.01 155.11,165.84 155.11,183.65 C 165.74,176.5 178.97,178.11 186.12,188.74 L 187.15,190.71 C 184.71,193.15 182.26,197.04 182.26,197.99 C 182.26,200.07 184.14,200.38 185.28,199.31 C 189.68,189.75 197.03,185.91 206.59,186.14 C 214.84,187.19 219.3,195.84 219.3,202.6 C 219.3,213.23 212.15,223.86 200.56,223.86 H 170.16 C 165.74,215.31 159.36,210.89 152.11,210.89 C 144.87,210.89 140.46,215.31 138.18,221.23 C 127.55,226.52 111.73,225.31 100.03,218.06 C 98.71,210.81 92.22,204.32 82.66,204.95 C 76.74,205.79 72.33,209.81 70.06,213.12 L 73.18,224.31 C 68.77,218.39 63.31,215.71 54.87,221.97 C 53.09,223.34 48.31,223.34 42.39,223.34 C 32.83,223.34 25.04,214.8 25.04,205.79 C 25.04,198.92 29.44,192.81 35.36,191.09 C 25.38,192.26 16.01,201.51 16.01,212.55 C 16.01,224.92 26.07,235.33 38.44,235.33 H 80.94 L 81.41,234.7 L 82.14,235.91 H 210.62 C 224.62,235.91 234.97,223.48 234.09,211.11 Z" fill="#A4D9EA"/>
<path d="M 59.01,195.48 C 60.99,184.85 69.53,178.36 82.76,180.7" stroke="#69BDD9" stroke-width="4.4" stroke-miterlimit="10" stroke-linecap="round"/>
<path d="M 151.38,212.05 C 152.22,204.8 157.57,199.91 165.74,200.75" stroke="#36A6BA" stroke-width="4.4" stroke-miterlimit="10" stroke-linecap="round"/>
<path d="M 111.73,43.9 H 131.14 C 133.76,43.9 134.41,46.46 134.41,47.31 V 53.72 L 165.74,76.71 C 168.72,78.81 168.96,81.21 168.01,85.21 C 166.69,89.41 163.41,89.63 160.51,89.63 H 83.12 C 78.71,89.63 76.74,87.19 76.19,83.62 C 75.96,80.31 77.06,78.59 79.22,76.93 L 109.06,53.72 V 47.31 C 109.06,45.44 110.15,43.9 111.73,43.9 Z" fill="#55CECB" stroke="#164F72" stroke-width="4.4" stroke-miterlimit="10"/>
<path d="M 111.18,54.32 L 82.66,76.21 H 163.12 L 134.6,54.32 H 111.18 Z" fill="#259CB2" stroke="#164F72" stroke-width="3.3" stroke-miterlimit="10"/>
<path d="M 117.51,54.32 L 100.36,74.55 H 110.99 L 119.53,54.32 H 117.51 Z" fill="#FEFFFF"/>
<path d="M 126.05,54.32 L 139.87,74.55 H 149.43 L 133.18,54.32 H 126.05 Z" fill="#0182A6"/>
<path d="M 113.97,44.34 H 129.78 C 132.11,44.34 133.54,45.76 133.54,48.09 V 53.83 H 110.25 V 47.65 C 110.25,45.78 111.67,44.34 113.97,44.34 Z" fill="#F79421" stroke="#164F72" stroke-width="3.3" stroke-miterlimit="10"/>
<path d="M 123.09,44.34 H 129.72 C 131.75,44.34 133.43,45.76 133.43,47.63 V 53.81 H 123.09 V 44.34 Z" fill="#E95632" stroke="#164F72" stroke-width="2.2" stroke-miterlimit="10"/>
<path d="M 83.39,78.92 H 162.62 C 165.41,78.92 167.1,81.1 167.1,83.62 C 167.1,86.78 164.93,88.96 161.76,88.96 H 83.39 C 80.22,88.96 78.05,87.09 78.05,83.93 C 78.05,81.1 79.74,78.92 83.39,78.92 Z" fill="#F79421" stroke="#164F72" stroke-width="3.3" stroke-miterlimit="10"/>
<path d="M 140.23,78.92 H 162.51 C 165.29,78.92 166.69,81.1 166.69,83.19 C 166.69,86.36 164.91,88.31 161.74,88.31 H 140.23 V 78.92 Z" fill="#E95632" stroke="#164F72" stroke-width="2.2" stroke-miterlimit="10"/>
<path d="M 87.18,99.62 L 84.39,107.01" stroke="#36A6BA" stroke-width="4.95" stroke-miterlimit="10" stroke-linecap="round"/>
<path d="M 104.82,99.62 L 103.24,107.35" stroke="#36A6BA" stroke-width="4.95" stroke-miterlimit="10" stroke-linecap="round"/>
<path d="M 122.08,99.62 V 107.35" stroke="#36A6BA" stroke-width="4.95" stroke-miterlimit="10" stroke-linecap="round"/>
<path d="M 140.34,100.06 L 142.21,107.79" stroke="#36A6BA" stroke-width="4.95" stroke-miterlimit="10" stroke-linecap="round"/>
<path d="M 157.98,100.06 L 160.77,107.35" stroke="#36A6BA" stroke-width="4.95" stroke-miterlimit="10" stroke-linecap="round"/>
<path d="M 100.92,118.32 L 99.34,126.05" stroke="#36A6BA" stroke-width="4.95" stroke-miterlimit="10" stroke-linecap="round"/>
<path d="M 143.99,118.32 L 145.57,126.05" stroke="#36A6BA" stroke-width="4.95" stroke-miterlimit="10" stroke-linecap="round"/>
<path d="M 96.92,136.92 L 95.5,144.99" stroke="#36A6BA" stroke-width="4.95" stroke-miterlimit="10" stroke-linecap="round"/>
<path d="M 122.64,115.01 C 118.23,120.93 117.9,125.34 118.12,130.79 C 115.12,131.12 115.67,135.01 116.22,137.19 L 120.63,133.88 H 125.04 L 128.51,137.19 C 129.35,133.25 128.26,130.24 126.58,129.69 C 127.41,123.77 126.21,120.21 122.64,115.01 Z" fill="#259CB2" stroke="#164F72" stroke-width="1.65" stroke-miterlimit="10"/>
<path d="M 122.08,125.94 C 123.71,125.94 124.41,124.91 124.41,123.77 C 124.41,122.35 123.53,121.51 122.31,121.51 C 120.95,121.51 120.11,122.54 120.11,123.61 C 120.11,124.88 120.84,125.94 122.08,125.94 Z" fill="#FEFFFF" stroke="#164F72" stroke-width="1.1" stroke-miterlimit="10"/>
<path d="M 122.08,129.81 V 137.19" stroke="#164F72" stroke-width="1.65" stroke-miterlimit="10"/>
<path d="M 164.65,115.56 C 161.19,124.62 162.02,130.36 166.43,137.13 C 163.43,138.84 164.85,145.71 168.51,150.13 L 173.46,142.29 L 180.7,138.31 L 187.47,141.32 C 186.33,134.08 182.38,131.35 178.97,131.01 C 175.61,123.17 171.94,118.14 164.65,115.56 Z" fill="#259CB2" stroke="#164F72" stroke-width="2.2" stroke-miterlimit="10"/>
<path d="M 166.43,137.13 L 170.84,144.97 L 173.85,143.01 L 171.62,137.13 L 166.43,137.13 Z" fill="#164F72"/>
<path d="M 169.94,125.05 C 172.28,124.21 173.63,126.08 173.85,127.24 C 174.3,129.01 172.99,130.62 171.31,130.9 C 169.43,131.24 167.91,129.81 167.79,128.26 C 167.65,126.92 168.38,125.61 169.94,125.05 Z" fill="#FEFFFF" stroke="#164F72" stroke-width="2.2" stroke-miterlimit="10"/>
<path d="M 174.08,119.98 L 164.1,123.14 L 165.19,116.13 L 167.63,116.41 L 171.19,118.28 L 174.08,119.98 Z" fill="#F79421" stroke="#164F72" stroke-width="1.65" stroke-miterlimit="10"/>
<path d="M 172.82,144.13 L 180.61,139.72 L 181.69,141.81 L 174.45,146.22 L 172.82,144.13 Z" fill="#E95632" stroke="#164F72" stroke-width="1.65" stroke-miterlimit="10"/>
<path d="M 180.06,131.01 L 182.85,131.85 L 186.21,135.69 L 187.47,140.61 L 181.55,137.77 L 180.06,131.01 Z" fill="#B74126" stroke="#164F72" stroke-width="2.2" stroke-miterlimit="10"/>
<path d="M 165.41,138.08 L 164.15,141.19 L 165.04,146.22 L 167.71,149.78 L 170.6,143.29 L 168.16,138.08 H 165.41 Z" fill="#B74126" stroke="#164F72" stroke-width="2.2" stroke-miterlimit="10"/>
<path d="M 80.61,115.56 C 83.5,123.4 82.66,128.86 78.25,135.63 C 81.25,137.71 80.61,143.63 76.74,149.55 L 72.33,142.26 L 65.67,138.31 C 65.67,132.39 68.94,122.31 75.27,117.39 L 80.61,115.56 Z" fill="#259CB2" stroke="#164F72" stroke-width="2.2" stroke-miterlimit="10"/>
<path d="M 65.11,138.84 L 63.97,142.78 L 71.21,147.09 L 72.84,144.65 L 65.11,138.84 Z" fill="#E95632" stroke="#164F72" stroke-width="2.2" stroke-miterlimit="10"/>
<path d="M 65.33,130.47 L 61.98,131.63 L 58.51,135.75 L 57.37,141.19 L 64.03,138.08 L 65.33,130.47 Z" fill="#B74126" stroke="#164F72" stroke-width="2.2" stroke-miterlimit="10"/>
<path d="M 78.6,137.53 L 79.74,140.75 L 78.54,146.1 L 76.09,149.01 L 73.31,143.66 L 76.67,138.08 L 78.6,137.53 Z" fill="#B74126" stroke="#164F72" stroke-width="2.2" stroke-miterlimit="10"/>
<path d="M 78.25,117.11 L 72.33,120.67 L 74.95,121.22 L 79.9,122.38 L 81.47,121.54 L 80.63,116.08 L 78.25,117.11 Z" fill="#B74126" stroke="#164F72" stroke-width="2.2" stroke-miterlimit="10"/>
<path d="M 74.11,125.44 C 72.09,126.51 71.76,128.37 72.59,129.79 C 73.54,131.41 75.22,131.41 76.53,130.56 C 77.94,129.61 78.27,127.84 77.43,126.42 C 76.69,125.27 75.44,124.82 74.11,125.44 Z" fill="#FEFFFF" stroke="#164F72" stroke-width="2.2" stroke-miterlimit="10"/>
<path d="M 122.53,164.77 C 114.63,174.33 113.75,179.68 113.97,188.74 C 109.56,190.71 108.72,196.06 109.81,202.82 L 116.14,196.9 L 127.55,197.29 L 134.32,202.82 C 136.29,194.28 133.85,190.34 130.39,188.74 C 131.53,179.17 128.45,171.33 122.53,164.77 Z" fill="#259CB2" stroke="#164F72" stroke-width="2.2" stroke-miterlimit="10"/>
<path d="M 121.75,203.21 C 116.8,203.21 116.8,205.65 116.8,209.22 C 116.8,212.78 118.77,215.62 122.23,219.92 C 124.78,215.51 125.92,213.06 126.76,213.91 C 128.34,214.75 128.99,209.22 127.57,206.05 C 126.43,203.87 125.01,203.21 121.75,203.21 Z" fill="#F16423"/>
<path d="M 122.08,204.8 C 119.29,204.8 118.96,206.22 118.96,208.09 C 118.96,209.96 119.8,211.02 121.64,213.35 C 123.05,211.02 123.94,210.18 124.49,210.51 C 125.43,210.96 125.88,207.95 125.04,206.31 C 124.41,205.25 123.78,204.8 122.08,204.8 Z" fill="#FED563"/>
<path d="M 126.91,172.29 L 117.36,171.45 L 122.31,165.53 L 124.41,167.25 L 126.91,172.29 Z" fill="#F79421" stroke="#164F72" stroke-width="2.2" stroke-miterlimit="10"/>
<path d="M 117.25,198.81 L 127.66,198.87 V 201.88 L 117.25,201.71 V 198.81 Z" fill="#164F72"/>
<path d="M 131.11,189.29 L 134.01,193.12 L 134.66,199.04 L 133.52,202.05 L 128.57,195.89 L 131.11,189.29 Z" fill="#B74126" stroke="#164F72" stroke-width="2.2" stroke-miterlimit="10"/>
<path d="M 113.75,189.18 L 111.13,193.01 L 110.29,198.1 L 111.13,201.01 L 116.08,195.56 L 113.75,189.18 Z" fill="#B74126" stroke="#164F72" stroke-width="2.2" stroke-miterlimit="10"/>
<path d="M 121.75,177.74 C 118.86,177.74 118.12,179.71 118.67,181.58 C 119.22,183.45 120.53,184.11 122.11,183.88 C 124.08,183.54 125.01,182.12 124.85,180.41 C 124.63,178.98 123.64,177.74 121.75,177.74 Z" fill="#FEFFFF" stroke="#164F72" stroke-width="2.2" stroke-miterlimit="10"/>
<path d="M 176.64,148.67 C 174.67,149.83 175.76,155.28 184.31,160.11 C 185.15,156.17 186.83,154.61 185.41,150.13 C 183.44,146.71 180.08,146.16 176.64,148.67 Z" fill="#F16423"/>
<path d="M 178.11,149.01 C 176.86,149.75 177.41,153.41 182.87,156.57 C 183.42,153.84 184.51,152.78 183.56,149.78 C 182.32,147.44 180.08,147.11 178.11,149.01 Z" fill="#FED563"/>
<path d="M 60.7,147.93 C 58.36,150.37 58.75,152.46 59.91,160.19 C 65.25,157.75 69.11,153.33 68.66,149.38 C 67.93,146.02 64.47,145.18 60.7,147.93 Z" fill="#F16423"/>
<path d="M 62.12,149.35 C 60.7,150.42 60.81,151.69 61.46,155.8 C 64.72,154.24 66.41,152.06 66.41,149.61 C 66.07,147.75 64.49,147.52 62.12,149.35 Z" fill="#FED563"/>
</svg>